<svg width="48" height="48" viewBox="0 0 48 48" fill="none" xmlns="http://www.w3.org/2000/svg">
<g filter="url(#filter0_d)">
<path d="M20.2 2L18.3 4.08437L16.1 2.59553L15 5.17618L12.4 4.08437L11.7 6.76427L9 6.26799V8.94789H6.1L6.4 11.8263L4 12.3226L4.8 14.9032L2.5 16.0943L4 18.4764L2 19.9653L3.6 21.8511L2 23.737L4 25.5236L2.7 27.8065L5.1 28.8983L4.2 31.6774L7 32.0744L6.6 34.6551H9V37.4342L12.1 37.0372L12.3 39.4194L15 38.6253L16.3 41.0074L18.5 39.8164L20 41.8015L22.1 40.1141L23.9 42L25.6 39.8164L27.9 41.0074L28.9 38.8238L31.5 39.6179L32.2 37.0372L34.7 37.4342V34.6551H37.6L37.4 32.0744L39.8 31.4789L39 28.8983L41.3 27.7072L39.8 25.6228L42 24.0347L40.2 22.0496L42 20.263L39.8 18.4764L41.3 15.995L38.7 15.201L39.6 12.4218L37 12.0248L37.6 9.44417L35 9.24566V6.36725L32.2 6.96278L31.5 4.28288L28.9 4.97767L28 2.59553L25.6 4.08437L23.9 2L22 4.08437L20.2 2Z" fill="#FFCB05"/>
<path d="M12.8262 20.3047L14.2207 17.4688H16.5703L14.1855 21.6992L16.6348 26H14.2617L12.8262 23.1113L11.3906 26H9.02344L11.4668 21.6992L9.08789 17.4688H11.4316L12.8262 20.3047ZM22.3125 17.4688H24.3691V26H22.3125V20.6211L19.248 26H17.1914V17.4688H19.248V22.8535L22.3125 17.4688ZM32.1504 19.0566H29.5898V26H27.5332V19.0566H25.0195V17.4688H32.1504V19.0566ZM34.8926 23.2988H33.293L33.041 17.4688H35.1445L34.8926 23.2988ZM32.9824 25.1152C32.9824 24.8262 33.0859 24.5898 33.293 24.4062C33.5039 24.2188 33.7656 24.125 34.0781 24.125C34.3906 24.125 34.6504 24.2188 34.8574 24.4062C35.0684 24.5898 35.1738 24.8262 35.1738 25.1152C35.1738 25.4043 35.0684 25.6426 34.8574 25.8301C34.6504 26.0137 34.3906 26.1055 34.0781 26.1055C33.7656 26.1055 33.5039 26.0137 33.293 25.8301C33.0859 25.6426 32.9824 25.4043 32.9824 25.1152Z" fill="white"/>
</g>
<defs>
<filter id="filter0_d" x="0" y="0" width="48" height="48" filterUnits="userSpaceOnUse" color-interpolation-filters="sRGB">
<feFlood flood-opacity="0" result="BackgroundImageFix"/>
<feColorMatrix in="SourceAlpha" type="matrix" values="0 0 0 0 0 0 0 0 0 0 0 0 0 0 0 0 0 0 127 0"/>
<feOffset dx="2" dy="2"/>
<feGaussianBlur stdDeviation="2"/>
<feColorMatrix type="matrix" values="0 0 0 0 0 0 0 0 0 0 0 0 0 0 0 0 0 0 0.08 0"/>
<feBlend mode="normal" in2="BackgroundImageFix" result="effect1_dropShadow"/>
<feBlend mode="normal" in="SourceGraphic" in2="effect1_dropShadow" result="shape"/>
</filter>
</defs>
</svg>
