<svg width="60" height="20" viewBox="0 0 60 20" fill="none" xmlns="http://www.w3.org/2000/svg">
<path d="M0 0H60L49.5146 9.5L60 20H0V0Z" fill="#E14747"/>
<path d="M8.85859 13H7.44746V10.7832H5.19648V13H3.78047V7.31152H5.19648V9.64551H7.44746V7.31152H8.85859V13ZM15.367 10.2705C15.367 10.8271 15.2579 11.3187 15.0398 11.7451C14.8217 12.1715 14.5092 12.5003 14.1023 12.7314C13.6987 12.9626 13.2397 13.0781 12.7254 13.0781C12.2078 13.0781 11.7456 12.9642 11.3387 12.7363C10.935 12.5085 10.6225 12.1846 10.4012 11.7646C10.1798 11.3415 10.0675 10.8548 10.0643 10.3047V10.0508C10.0643 9.49089 10.1733 8.99772 10.3914 8.57129C10.6095 8.14486 10.9204 7.81608 11.324 7.58496C11.7277 7.35059 12.1915 7.2334 12.7156 7.2334C13.2299 7.2334 13.6873 7.34733 14.0877 7.5752C14.4913 7.80306 14.8038 8.13021 15.0252 8.55664C15.2498 8.97982 15.3637 9.4681 15.367 10.0215V10.2705ZM13.951 10.0459C13.951 9.50553 13.8419 9.09049 13.6238 8.80078C13.409 8.51107 13.1062 8.36621 12.7156 8.36621C12.312 8.36621 12.0044 8.51107 11.7928 8.80078C11.5844 9.09049 11.4803 9.50553 11.4803 10.0459V10.2705C11.4803 10.8011 11.5877 11.2145 11.8025 11.5107C12.0174 11.807 12.325 11.9551 12.7254 11.9551C13.103 11.9551 13.4008 11.8086 13.6189 11.5156C13.8403 11.2227 13.951 10.8027 13.951 10.2559V10.0459ZM16.5727 13V7.31152H18.7699C19.5284 7.31152 20.1111 7.44661 20.518 7.7168C20.9249 7.98372 21.1283 8.37272 21.1283 8.88379C21.1283 9.17025 21.0534 9.42253 20.9037 9.64062C20.7572 9.85547 20.5456 10.0133 20.2689 10.1143C20.588 10.1956 20.8321 10.3503 21.0014 10.5781C21.1706 10.806 21.2553 11.0697 21.2553 11.3691C21.2553 11.9323 21.0616 12.3457 20.6742 12.6094C20.2868 12.8698 19.7237 13 18.9848 13H16.5727ZM17.9887 10.6318V11.8672H18.9848C19.2582 11.8672 19.4698 11.8135 19.6195 11.7061C19.7693 11.5954 19.8441 11.4505 19.8441 11.2715C19.8441 10.8581 19.5951 10.6449 19.0971 10.6318H17.9887ZM17.9887 9.67969H18.8578C19.4275 9.67969 19.7123 9.48112 19.7123 9.08398C19.7123 8.85612 19.6423 8.69499 19.5023 8.60059C19.3656 8.50293 19.1557 8.4541 18.8725 8.4541H17.9887V9.67969ZM26.1865 7.31152H27.6025V13H26.1865V9.43555L23.9258 13H22.5098V7.31152H23.9258V10.876L26.1865 7.31152ZM34.0523 13H32.6412V10.7832H30.3902V13H28.9742V7.31152H30.3902V9.64551H32.6412V7.31152H34.0523V13ZM37.3967 10.8516H36.8449V13H35.4289V7.31152H36.8449V9.51855H37.3771L38.5539 7.31152H40.175L38.5295 10.0801L40.3459 13H38.6223L37.3967 10.8516ZM44.8768 11.916H42.6746L42.2742 13H40.8582L43.1092 7.31152H44.4373L46.7078 13H45.282L44.8768 11.916ZM43.0555 10.8809H44.4861L43.7684 8.95703L43.0555 10.8809Z" fill="white"/>
</svg>
